<?xml version="1.0" encoding="UTF-8"?>
<svg width="10px" height="16px" viewBox="0 0 10 16" version="1.1" xmlns="http://www.w3.org/2000/svg" xmlns:xlink="http://www.w3.org/1999/xlink">
    <g transform="translate(-229.000000, -25.000000)" fill="#fff">
        <path d="M230.25,40.984375 C230.177083,40.984375 230.106771,40.9713543 230.039062,40.9453125 C229.971354,40.9192707 229.911459,40.8802086 229.859375,40.828125 C229.755208,40.7239578 229.703125,40.5989591 229.703125,40.453125 C229.703125,40.3072909 229.755208,40.1822922 229.859375,40.078125 L237,32.9375 L229.96875,25.921875 C229.864583,25.8177078 229.8125,25.6901049 229.8125,25.5390625 C229.8125,25.3880201 229.864583,25.2604172 229.96875,25.15625 C230.072917,25.0520828 230.20052,25 230.351562,25 C230.502605,25 230.630208,25.0520828 230.734375,25.15625 L238.125,32.5625 C238.229167,32.6666672 238.28125,32.7916659 238.28125,32.9375 C238.28125,33.0833341 238.229167,33.2083328 238.125,33.3125 L230.625,40.828125 C230.572916,40.8802086 230.513021,40.9192707 230.445312,40.9453125 C230.377604,40.9713543 230.3125,40.984375 230.25,40.984375 Z"></path>
    </g>
</svg>
