<?xml version="1.0" encoding="UTF-8"?>
<svg width="38px" height="51px" viewBox="0 0 38 51" version="1.1" xmlns="http://www.w3.org/2000/svg" xmlns:xlink="http://www.w3.org/1999/xlink">
    <g transform="translate(-119.000000, -15.000000)" fill="#904669">
        <g id="Group-5" transform="translate(116.000000, 3.000000)">
            <path d="M37.284,27.208 C37.284,27.5546684 36.6080068,28.1093295 35.256,28.872 C33.4533243,29.9120052 32.1706705,30.7439969 31.408,31.368 C30.2986611,32.3040047 29.2413384,33.534659 28.236,35.06 C27.9586653,35.4760021 27.1266736,36.879988 25.74,39.272 C24.7693285,40.9360083 24.1106684,41.768 23.764,41.768 C23.555999,41.768 23.452,41.5600021 23.452,41.144 C23.452,41.1093332 23.4693332,41.0053342 23.504,40.832 L23.504,40.312 C23.504,35.1813077 24.699988,30.778685 27.092,27.104 C29.2066772,23.845317 31.4079886,22.216 33.696,22.216 C33.9733347,22.216 34.112,22.5106637 34.112,23.1 C34.112,23.1693337 33.8606692,23.4466642 33.358,23.932 C32.8553308,24.4173358 32.604,24.8679979 32.604,25.284 C32.604,26.6360068 33.2279938,27.312 34.476,27.312 C34.684001,27.312 34.9873313,27.1820013 35.386,26.922 C35.7846687,26.6619987 36.0706658,26.532 36.244,26.532 L37.024,26.532 C37.1973342,26.8786684 37.284,27.1039995 37.284,27.208 Z M29.952,17.744 C24.8906414,25.5093722 22.3080005,33.1706289 22.204,40.728 C21.7533311,40.6933332 21.4413342,39.9653404 21.268,38.544 L20.54,32.096 C20.0893311,29.0799849 19.3786715,25.7866845 18.408,22.216 C17.7839969,19.9626554 17.472,18.0906741 17.472,16.6 C17.472,16.2533316 17.7319974,16.0106674 18.252,15.872 C18.460001,15.9760005 18.667999,16.028 18.876,16.028 C19.6386705,16.028 20.123999,15.8373352 20.332,15.456 C20.4706674,15.2133321 20.54,14.6760042 20.54,13.844 C20.54,13.1506632 20.9386627,12.804 21.736,12.804 C22.39467,12.804 22.7846661,13.1593298 22.906,13.87 C23.0273339,14.5806702 23.2266653,14.936 23.504,14.936 C23.7466679,14.936 24.1539971,14.7106689 24.726,14.26 C25.2980029,13.8093311 25.687999,13.584 25.896,13.584 C26.7973378,13.584 27.248,13.8959969 27.248,14.52 C27.248,14.7626679 27.1960005,15.0746648 27.092,15.456 C26.9879995,15.8373352 26.936,16.0973326 26.936,16.236 C26.936,16.7213358 27.2826632,16.964 27.976,16.964 C28.1146674,16.964 28.3053321,16.9120005 28.548,16.808 C28.7906679,16.7039995 28.9639995,16.652 29.068,16.652 C29.4493352,16.652 29.743999,17.0159964 29.952,17.744 Z M40.924,35.424 C40.924,35.9440026 40.5773368,36.204 39.884,36.204 C39.8146663,36.204 39.6673345,36.1866668 39.442,36.152 C39.2166655,36.1173332 39.0346674,36.1 38.896,36.1 C38.4453311,36.1 38.055335,36.2906648 37.726,36.672 C37.396665,37.0533352 37.232,37.5039974 37.232,38.024 C37.232,38.6133363 37.665329,39.3586622 38.532,40.26 C39.398671,41.1613378 39.832,41.6813326 39.832,41.82 C39.832,42.2706689 39.398671,42.496 38.532,42.496 C38.1159979,42.496 37.3273391,42.2533358 36.166,41.768 C35.0046609,41.2826642 34.1293363,41.04 33.54,41.04 C32.9506637,41.04 31.8240083,41.36933 30.16,42.028 C28.4959917,42.68667 27.1960047,43.016 26.26,43.016 C25.8439979,43.016 25.636,42.7906689 25.636,42.34 C26.6066715,40.1906559 27.6726609,38.3620075 28.834,36.854 C29.9953391,35.3459925 31.2519932,34.3493358 32.604,33.864 C33.6440052,33.4826648 35.2213228,33.292 37.336,33.292 C38.1333373,33.292 38.9306627,33.560664 39.728,34.098 C40.5253373,34.635336 40.924,35.0773316 40.924,35.424 Z M20.54,39.168 C20.54,39.5840021 20.4100013,40.0519974 20.15,40.572 C19.8899987,41.0920026 19.6906674,41.352 19.552,41.352 C19.1359979,41.352 18.4080052,39.8960146 17.368,36.984 C14.3866518,32.650645 11.0066856,29.2186793 7.228,26.688 C7.0546658,26.5839995 6.968,26.4800005 6.968,26.376 C6.968,25.8559974 7.33199636,25.596 8.06,25.596 C8.33733472,25.596 8.77066372,25.699999 9.36,25.908 C9.94933628,26.116001 10.3653321,26.22 10.608,26.22 C10.9893352,26.22 11.4053311,25.9946689 11.856,25.544 C12.3066689,25.0933311 12.532,24.6426689 12.532,24.192 C12.532,23.4293295 12.1680036,22.7533363 11.44,22.164 L10.348,21.28 C10.348,21.1066658 10.512665,20.9073345 10.842,20.682 C11.171335,20.4566655 11.5093316,20.344 11.856,20.344 C12.6186705,20.344 13.537328,20.8639948 14.612,21.904 C15.7906726,23.0480057 16.8306622,24.5213243 17.732,26.324 C17.9053342,26.6706684 18.425329,28.7853139 19.292,32.668 C20.1240042,36.3773519 20.54,38.5439969 20.54,39.168 Z M17.784,41.3 C17.1946637,41.7506689 16.6573358,41.976 16.172,41.976 C15.963999,41.976 15.426671,41.5340044 14.56,40.65 C13.693329,39.7659956 12.8613373,39.324 12.064,39.324 L11.076,39.324 C10.5906642,39.324 9.6546736,39.7833287 8.268,40.702 C6.8813264,41.6206713 5.98000208,42.08 5.564,42.08 C4.76666268,42.08 4.368,41.6986705 4.368,40.936 C4.368,40.5546648 4.6713303,40.0520031 5.278,39.428 C5.8846697,38.8039969 6.188,38.16267 6.188,37.504 C6.188,36.6026622 5.98000208,35.9093358 5.564,35.424 C5.32133212,35.1466653 4.92266944,34.904001 4.368,34.696 C3.95199792,34.5226658 3.744,34.3493342 3.744,34.176 C3.744,33.51733 4.0039974,33.188 4.524,33.188 L5.044,33.188 C5.49466892,33.188 6.16199558,33.1533337 7.046,33.084 C7.93000442,33.0146663 8.59733108,32.98 9.048,32.98 C10.3653399,32.98 11.4226627,33.1706648 12.22,33.552 C12.8093363,33.8640016 13.5893285,34.4879953 14.56,35.424 C16.4666762,37.2266757 17.5413321,39.1853228 17.784,41.3 Z M28.756,49.516 C28.756,50.7986731 28.4353365,52.1246598 27.794,53.494 C27.1526635,54.8633402 26.5720026,55.548 26.052,55.548 C25.6706648,55.548 25.48,55.2013368 25.48,54.508 C25.48,54.3346658 25.4973332,54.0573352 25.532,53.676 L25.532,52.74 C25.532,51.3186596 25.098671,50.1400047 24.232,49.204 C23.365329,48.2679953 22.3600057,47.8 21.216,47.8 C20.2799953,47.8 19.4393371,48.0946637 18.694,48.684 C17.9486629,49.2733363 17.4633345,50.0273287 17.238,50.946 C17.0126655,51.8646713 16.8306674,53.0173264 16.692,54.404 C16.6226663,55.2360042 16.5013342,55.652 16.328,55.652 C15.8773311,55.652 15.3400031,55.114672 14.716,54.04 C13.9879964,52.7226601 13.624,51.2840078 13.624,49.724 C13.624,47.990658 14.3346596,46.4653399 15.756,45.148 C17.3160078,43.7266596 19.2399886,43.016 21.528,43.016 C23.7466778,43.016 25.5059935,43.6053274 26.806,44.784 C28.1060065,45.9626726 28.756,47.5399901 28.756,49.516 Z M24.284,52.116 C24.284,52.9133373 24.0066694,53.7106627 23.452,54.508 C22.79333,55.5133384 22.4466668,56.1026658 22.412,56.276 C22.3773332,57.2120047 22.2213347,58.7719891 21.944,60.956 C21.735999,62.0653389 21.3546694,62.62 20.8,62.62 C20.2106637,62.62 19.916,61.5453441 19.916,59.396 C19.916,59.3266663 19.9333332,59.188001 19.968,58.98 L19.968,58.564 C19.968,57.1426596 19.7340023,55.8686723 19.266,54.742 C18.7979977,53.6153277 18.564,52.9653342 18.564,52.792 C18.564,50.5039886 19.430658,49.36 21.164,49.36 C21.9266705,49.36 22.63733,49.628664 23.296,50.166 C23.95467,50.703336 24.284,51.3533295 24.284,52.116 Z M23.764,20.396 C23.764,20.0839984 23.6166681,19.7026689 23.322,19.252 C23.0273319,18.8013311 22.8106674,18.576 22.672,18.576 C22.4293321,18.576 22.1866679,18.8706637 21.944,19.46 C21.7013321,20.0493363 21.58,20.7253295 21.58,21.488 C21.58,22.4586715 21.683999,23.4033287 21.892,24.322 C22.100001,25.2406713 22.2733326,25.7 22.412,25.7 C23.3133378,23.7239901 23.764,21.9560078 23.764,20.396 Z M31.044,28.196 C30.8013321,28.0573326 30.5933342,27.988 30.42,27.988 C30.211999,27.988 30.0386674,28.0053332 29.9,28.04 C29.3453306,28.6640031 28.6173378,29.7733254 27.716,31.368 C29.7960104,29.6693248 30.9053326,28.6120021 31.044,28.196 Z M34.736,37.4 C34.736,36.9146642 34.4760026,36.6200005 33.956,36.516 C31.7026554,37.4866715 30.576,38.3186632 30.576,39.012 C30.576,39.1160005 30.5933332,39.1853332 30.628,39.22 C30.7320005,39.1853332 31.9453217,38.8213368 34.268,38.128 C34.5800016,37.8159984 34.736,37.5733342 34.736,37.4 Z M16.64,32.096 C15.7386622,29.5653207 15.1320016,28.0226694 14.82,27.468 L13.208,27.728 C13.5893352,28.4906705 14.7333238,29.9466559 16.64,32.096 Z M13.936,37.452 C12.8959948,36.8973306 11.5440083,36.29067 9.88,35.632 C9.46399792,36.1520026 9.256,36.5333321 9.256,36.776 C9.256,36.8800005 9.32533264,37.0013326 9.464,37.14 C11.4746767,37.2093337 12.9653285,37.3133326 13.936,37.452 Z" id="StayWorld"></path>
        </g>
    </g>
</svg>
